<svg xmlns="http://www.w3.org/2000/svg" viewBox="0 0 283.99 421.86"><defs><style>.cls-1{fill:#e1bb23;}.cls-1,.cls-2,.cls-3,.cls-4{fill-rule:evenodd;}.cls-3{fill:#fff;}.cls-4{fill:none;stroke:#000;stroke-miterlimit:10;stroke-width:2px;}</style></defs><title>the301-logo</title><g id="Layer_2" data-name="Layer 2"><g id="Layer_1-2" data-name="Layer 1"><path class="cls-1" d="M194,211.39A107,107,0,0,1,.55,274.32V148.45A107,107,0,0,1,194,211.39Z"/><path class="cls-2" d="M127.93,221.07c-.58.62.94,1.47,1,2.3-.49-3.66-12.47.27-13.66.83-9,4.21-14.49,12.78-15.56,22.48.16-1.38,6.26-6.71,7.51-8.21,3.4-4.09,7.1-6.64,13-5-1.67,1.53-3.45,3-4.1,5.62,4.13.6,8.37,1.1,10.92,3.28-12.49-1.18-21.65,3.85-27.85,11.4-7.22,8.79-11.53,21.85-9.36,38a65.84,65.84,0,0,0,12.05-16.35,15.47,15.47,0,0,1,.77,5.63,17.15,17.15,0,0,0,4.51-6.17,27.77,27.77,0,0,0,2.27-8.66c.74,2.11.6,5.69.23,8.11,2-1.08,3.44-2.87,5-4.47-1.24,7.12-2.53,15.85-2.19,24.6.39,10.08,1.63,19.77,5.44,26.29,1-1.18,1.4-3.28,1.86-5.06a79.65,79.65,0,0,0,2.72-23c1.38,1.82,1.48,4.92,2,7.66,1.46-.91,1.94-2.95,2.52-4.61a72.34,72.34,0,0,0,3.63-18c1.34,1.63,1.3,4.63,2,7,1.94-2.87,2.75-7,3.73-11,.68.43.52,1.7,1,2.29,3.05-1.63,3.72-5.92,4.52-10.07,2.26,2.47,2.44,7,4.71,9.48a36.3,36.3,0,0,0,3.26,9c.6,1.28.83,3.68,1.3,5.38.42,1.55,1.32,2.9,1.83,4.44.57,1.72.61,4,1,5.92.39,1.79,1.27,3.4,1.7,5.13.47,1.9.45,4.1.77,6.19.28,1.87,1,3.63,1.43,5.52.5,2.38.17,5.77.49,8.27.2,1.56.94,3,1.17,4.54.42,2.83-.2,6,0,8.94.1,1.69.78,3.37.9,4.94.18,2.06-.44,4.32-.55,6.53-.07,1.7-.11,3.5,0,5.17.07,1.07.49,2.2.52,3.24.09,3.12-1.16,6.45-1.35,9.84a18.69,18.69,0,0,0,.37,5.89c-.87,4.32-2.67,9.36-2.69,14.37a7,7,0,0,0,.39,2.81c1.05,1.82,6.4,2.57,9.48,2.93,4.72.54,9.62.34,12.13-1.69.62-4.88,0-9.47-.87-14.3a12.29,12.29,0,0,1-.52-2.82c.22-.75,1.42-.75,1.59-1.44.23-4.79-.7-8.51-1.67-12.67a16.64,16.64,0,0,1-.65-3c.13-.78,1.2-1.24,1.33-1.74.5-2.07-.71-5.7-1.16-7.47-.25-.95-.55-2.15-.91-3.4a13.84,13.84,0,0,1-.91-3.41c.07-.6.93-1,1.06-1.61.35-1.67-1-5.53-1.42-6.93a64.35,64.35,0,0,0-2.23-6.13c.05-.7.82-1,.94-1.62.3-1.77-1-4.46-1.7-6.38-.79-2.21-1.68-4.23-2.35-5.73,1.45-1.78-.15-4.81-1.16-7.19-.82-1.93-1.68-3.74-2.35-5.16,1.15-3.77-2.81-8.35-4-11.4-.05-.61.38-.7.4-1.24-1.06-3.53-3-6.21-4.71-9.06.62-4.14-3.59-6.5-4.32-9.75,1.29.21,2.53,1,4.09,1.49a46.14,46.14,0,0,0,12.25,1.26c.42-.79-.76-1.06-.65-2,3.89,1.07,8.38,2.76,13.17,3.41-.09-.75-.74-.95-.66-1.86,6.09-.6,10.4,3,12.76,7-.51-6.4-3.18-10.64-7.07-13.68.35-.69,1.23-.77,2.25-.71a18.5,18.5,0,0,0-7-7.24c.6-.49,1.75-.38,2.77-.4-.66-1.38-2.21-2-3.55-2.86a34.87,34.87,0,0,0-17.64-5.62c0-1,1.84-1.1,2.12-2.25a29.68,29.68,0,0,0-5-1.12,12.57,12.57,0,0,1,2.64-1.53c2.52-1.38,5.13-3,6.75-5.62-.74-.06-1.21-.36-2-.39A32.78,32.78,0,0,0,180.76,227a15.45,15.45,0,0,1-3,0c2-2,6.46-2.48,11-2.17-1.61-1.58-4-2.2-6.32-2.88a45.12,45.12,0,0,0-7.64-1.55c-14.3-1.51-24.22,3.91-30.22,12-.25-3-.32-6.09-1.55-8-.67.6-.45,2.21-.81,3.16-1-.5-1.31-1.66-2-2.48C137.27,221.29,133.61,222.37,127.93,221.07Z"/><path class="cls-2" d="M109.41,134.29c-6.76-8.37-16.48-14.26-29.36-13.76,2.55-2.16,6.91-2.43,11.16-2.81-.8-2.87-2.71-4.49-4.51-6.22a17.56,17.56,0,0,1,10,1.18c3.87,4.77,7,10.4,11.83,14.06-1.74-11.57-7.43-22.11-15.32-27.52C89,96.31,82.16,93.31,77,96.11c.08-.88,1.61-1.68,1-2.37a18.65,18.65,0,0,0-12.3,7.55c-.64.84-.87,2-1.92,2.51-.41-1-.26-2.71-1-3.4-1.18,2-1.11,5.32-1.23,8.44C55,99.94,44.42,93.61,29.69,94.33a43.32,43.32,0,0,0-7.84,1.19c-2.38.57-4.82,1.09-6.41,2.66,4.63-.05,9.26.72,11.44,3a15.1,15.1,0,0,1-3.14-.15,39.83,39.83,0,0,0,13.39,12.73c-.79,0-1.27.28-2,.3,1.79,2.85,4.57,4.74,7.24,6.36a14.62,14.62,0,0,1,2.8,1.77A29.14,29.14,0,0,0,40,123c.35,1.24,2.28,1.43,2.3,2.52a32.59,32.59,0,0,0-18,4.88c-1.34.79-2.93,1.39-3.54,2.82,1.06.08,2.24,0,2.89.59a16.56,16.56,0,0,0-6.87,7.25c1.05,0,2,.13,2.35.89-3.88,3-6.46,7.3-6.68,14,2.26-4.14,6.55-7.66,12.88-6.65.13,1-.53,1.13-.59,1.92,4.93-.4,9.5-1.91,13.48-2.81.15,1-1,1.2-.58,2.07A45.73,45.73,0,0,0,50.27,150c1.59-.37,2.84-1.19,4.16-1.33-.6,3.4-4.85,5.64-4,10.06-1.67,2.91-3.51,5.65-4.46,9.32,0,.57.5.69.48,1.34-1.14,3.15-5,7.76-3.67,11.83-.62,1.46-1.43,3.33-2.19,5.33-.94,2.46-2.45,5.57-.87,7.55-.63,1.55-1.45,3.63-2.17,5.92-.63,2-1.85,4.77-1.46,6.66.14.67,1,1,1,1.77a61.24,61.24,0,0,0-2,6.37c-.37,1.45-1.6,5.45-1.16,7.25.16.65,1.07,1.13,1.17,1.77s-.52,2.46-.78,3.56c-.32,1.3-.58,2.55-.79,3.55-.39,1.84-1.47,5.62-.85,7.84.14.53,1.28,1.09,1.45,1.93a15.87,15.87,0,0,1-.54,3.1c-.81,4.35-1.6,8.24-1.14,13.32.2.75,1.45.82,1.71,1.63a12.59,12.59,0,0,1-.4,3A60.92,60.92,0,0,0,33.11,273c-.11,3.94-.2,10,1.5,11.18a93.93,93.93,0,0,0-1.69,10.18c-.24,2.32-1.24,8.72-.15,11.46.4,1,1.92,1.63,2.23,2.62.35,1.15-.25,3.9-.42,5.64-.19,2.07-.31,4.06-.41,5.64-.18,2.93-1,8.95.45,12.34.35.82,2.24,1.55,2.69,2.83.27.77-.06,3.27-.13,4.91-.27,6.89-.63,13.05,1.25,20.93.48,1.14,2.44,1.09,3,2.32.39.82,0,3.06,0,4.67.13,8,.51,15.56,3,23.59,4.7,3.25,12.69,3.41,20.17,2.34,4.87-.7,15.91-2.11,17-5.14.41-1.09,0-3.43-.25-4.65-1.6-8.26-6.08-16.49-8.84-23.58.28-2.73-.4-6.35-1.23-9.72-1.37-5.56-4.43-11-5.26-16.16-.28-1.72.06-3.59-.18-5.36-.36-2.75-1-5.71-1.64-8.51-.85-3.63-2.56-7.34-2.93-10.74-.28-2.59.31-5.38-.07-8.17-.67-4.89-2.64-10.05-2.84-14.72a62.73,62.73,0,0,0-2.82-16.53c-.72-4.17-2.17-8.28-3-11.9a19.91,19.91,0,0,0,.11-6.21c-.36-3.6-1.8-7.2-1.85-10.51,0-1.11.36-2.27.38-3.41,0-1.75-.1-3.66-.26-5.47-.21-2.35-.95-4.78-.87-6.95.06-1.66.69-3.4.71-5.18,0-3.14-.75-6.51-.45-9.48.17-1.61.86-3.1,1-4.73.22-2.63-.28-6.25.14-8.73.33-2,1-3.81,1.22-5.77.23-2.2.11-4.53.51-6.52.37-1.8,1.2-3.45,1.52-5.32.35-2,.28-4.42.79-6.22.46-1.6,1.32-3,1.7-4.58.4-1.78.53-4.3,1.09-5.63a35.3,35.3,0,0,0,3-9.32c2.24-2.47,2.21-7.29,4.44-9.77,1,4.45,1.91,9,5.14,10.95.52-.59.29-1.95,1-2.37,1.19,4.25,2.22,8.69,4.37,11.84.56-2.42.38-5.61,1.7-7.25a83.27,83.27,0,0,0,4.58,19.24c.68,1.79,1.27,4,2.82,5,.36-2.87.33-6.14,1.67-8A90,90,0,0,0,91,198.66c.55,1.92,1,4.17,2.16,5.48,3.64-6.68,4.48-16.87,4.42-27.52,0-9.26-1.79-18.59-3.41-26.2,1.71,1.78,3.24,3.77,5.4,5-.48-2.58-.8-6.38-.13-8.58a32.39,32.39,0,0,0,2.76,9.32,20.79,20.79,0,0,0,4.94,6.81,16.4,16.4,0,0,1,.54-5.92,80.39,80.39,0,0,0,13.24,18.06C122.37,158.14,117.3,144.05,109.41,134.29Z"/><path class="cls-2" d="M201.17,410.83s-14-36.26-87-36.26c-78,0-95,36.26-95,36.26Z"/><path class="cls-3" d="M131.3,180.44c2.24,1.48,3.76,3.78,6.23,5l0,.33c.83-.09,1.07.46,1.38.94,1.37,0,1.48,1.39,3,1.17-.15,1.23.78,1.24.77,2.3a9,9,0,0,1,1.83,3.23l-.66,0-.33,0c-1.5,1-3.62,1.38-5.22,2.26-1,0-1,.79-2,.75,0,.21,0,.4-.32.35.14.9,1.43.53,1.72,1.25l1.33-.06,1-.05,0,1c.81.1.7-.64,1.65-.41.78-.15,1.22-.59,2.31-.45,0-.73,1.39-.21,2-.43.76-.8,3-.26,4.3-.54l4.32-.21c3-.6,4.58-2.4,6.46-4,.62,0,.71-.41,1.31-.4.63-.79,2.74-.25,4-.53-.19-1-1.61-.57-2.07-1.23-1-.62-1.66-1.65-3.39-1.49,0-1.48,1.66-1.46,2.21-2.45h.32c2.42-.87,4.35-2.2,7.55-2.36,2.54-.77,3.86-2.63,3.35-6.16,0-.42-.45-.43-.38-1-1,.37-1,1.67-2.24,1.77a.91.91,0,0,1-1,.72c-.89.78-2.47.93-3.94,1.19A3.27,3.27,0,0,1,165,182.1a12.91,12.91,0,0,1-7.12,4c-2.26.28-3.08,1.86-5.22,2.25-4.35-3.83-8.31-8.1-14.78-9.59v-.33c-1.24-.51-2.62-.85-3.42-1.83a31.05,31.05,0,0,1-6.85-4c-.69.12,0,1.46-.58,1.69C128,176.85,130.06,178.19,131.3,180.44Z"/><path d="M264.23,117.85A24.59,24.59,0,0,1,270,125.7q2.25,4.72,2.25,12.22a33.58,33.58,0,0,1-2.69,13.59A32.19,32.19,0,0,1,262,162.27a34.12,34.12,0,0,1-12.83,7.53A51.47,51.47,0,0,1,233,172.23a74.05,74.05,0,0,1-17.74-2.14,83.15,83.15,0,0,1-14.32-4.69V150.2H202A59.46,59.46,0,0,0,216.53,157a52.67,52.67,0,0,0,16.14,2.69,34.28,34.28,0,0,0,9.74-1.53,20.71,20.71,0,0,0,8.37-4.51,21.46,21.46,0,0,0,5-7.05,25.12,25.12,0,0,0,1.63-9.75,22.13,22.13,0,0,0-1.85-9.63,14.93,14.93,0,0,0-5.13-6,20.1,20.1,0,0,0-7.92-3.09,56.66,56.66,0,0,0-10-.83h-6.54V105.2H231q11.06,0,17.63-4.62t6.58-13.49a13.21,13.21,0,0,0-6.33-11.71,20.76,20.76,0,0,0-6.68-2.61,40.23,40.23,0,0,0-8.07-.73,48.46,48.46,0,0,0-14.69,2.47,60.33,60.33,0,0,0-14.69,7L204,82V69.39a36.53,36.53,0,0,1,13.77-7.78,59.38,59.38,0,0,1,16.69-2.15,60.55,60.55,0,0,1,14,1.45,34.36,34.36,0,0,1,10.9,4.66,22.53,22.53,0,0,1,10.62,20,22.19,22.19,0,0,1-6.36,15.75,28,28,0,0,1-15,8.47v1a37.64,37.64,0,0,1,8,2.44A27,27,0,0,1,264.23,117.85Z"/><path d="M273.6,236.24q0,29.14-9.12,42.78t-28.32,13.64q-19.49,0-28.47-13.82t-9-42.46q0-28.86,9.09-42.64T236.16,180q19.49,0,28.46,14T273.6,236.24Zm-19.12,33a49,49,0,0,0,3.46-13.86,173.75,173.75,0,0,0,.9-19.15,177.57,177.57,0,0,0-.9-19.2,45.12,45.12,0,0,0-3.53-13.81,19.15,19.15,0,0,0-6.94-8.44Q243.06,192,236.16,192a20.78,20.78,0,0,0-11.31,2.83,19.28,19.28,0,0,0-7.09,8.58,45.84,45.84,0,0,0-3.38,14,183.91,183.91,0,0,0-.91,19,188.22,188.22,0,0,0,.8,19A46.76,46.76,0,0,0,217.69,269a19.13,19.13,0,0,0,6.8,8.65q4.39,3,11.67,3a20.87,20.87,0,0,0,11.34-2.84A18.26,18.26,0,0,0,254.48,269.25Z"/><path d="M267.57,410.83H209V399.78h22.54V327.22H209v-9.89a68,68,0,0,0,9.81-.76,24.86,24.86,0,0,0,7.93-2.22,13.34,13.34,0,0,0,7.49-12.14h11.27v97.57h22.1Z"/><path d="M90.42,20H63.16V87.31H53V20H25.76V11H90.42Z"/><path d="M142.56,87.31h-9.63V54.73a57.56,57.56,0,0,0-.46-7.41,13.59,13.59,0,0,0-1.69-5.4,7.83,7.83,0,0,0-3.69-3.21,16,16,0,0,0-6.25-1,20,20,0,0,0-8.25,1.94,42.37,42.37,0,0,0-8.25,5V87.31H94.71V11h9.63V36.44a38.85,38.85,0,0,1,9.32-5.85,24.52,24.52,0,0,1,9.89-2.1q9.27,0,14.14,5.59t4.87,16.09Z"/><path d="M198.89,59.7H156.72a24.32,24.32,0,0,0,1.59,9.19A16.91,16.91,0,0,0,169,79a25.21,25.21,0,0,0,8.07,1.23,31.82,31.82,0,0,0,11.76-2.33q5.91-2.32,8.43-4.58l.51-.46v11a78.88,78.88,0,0,1-9.94,3.43,40.4,40.4,0,0,1-10.66,1.38q-14.24,0-22.23-7.71t-8-21.9q0-14,7.65-22.29t20.17-8.25q11.56,0,17.85,6.77t6.28,19.21Zm-9.38-7.38q0-7.59-3.81-11.74c-2.52-2.76-6.33-4.14-11.46-4.14S165,38,161.92,41a17.68,17.68,0,0,0-5.2,11.32Z"/><polygon class="cls-4" points="1 111.69 1 1 282.99 1 282.99 420.86 1 420.86 1 204.44 1 111.69"/></g></g></svg>